<?xml version="1.0" standalone="no"?>
<!DOCTYPE svg PUBLIC "-//W3C//DTD SVG 20010904//EN"
 "http://www.w3.org/TR/2001/REC-SVG-20010904/DTD/svg10.dtd">
<svg version="1.0" xmlns="http://www.w3.org/2000/svg"
 width="214.000000pt" height="74.000000pt" viewBox="0 0 214.000000 74.000000"
 preserveAspectRatio="xMidYMid meet">

<g transform="translate(0.000000,74.000000) scale(0.100000,-0.100000)"
fill="#000000" stroke="none">
<path d="M1155 500 c-4 -7 -3 -16 3 -22 14 -14 45 -2 40 15 -6 16 -34 21 -43
7z"/>
<path d="M220 425 c0 -86 15 -125 55 -143 36 -17 100 -15 115 3 11 13 7 15
-29 15 -31 0 -48 6 -66 25 -36 35 -31 44 23 47 34 2 47 7 47 18 0 11 -13 16
-47 18 -43 3 -48 5 -48 28 0 23 3 24 60 24 53 0 60 2 60 20 0 18 -7 20 -85 20
l-85 0 0 -75z"/>
<path d="M945 488 c-3 -8 -4 -59 -3 -114 l3 -99 44 -3 c57 -4 86 3 111 28 26
26 25 54 -1 79 -20 18 -20 21 -5 36 20 20 20 35 2 60 -18 25 -143 36 -151 13z
m110 -38 c9 -27 -11 -50 -41 -50 -21 0 -24 5 -24 35 0 32 2 35 29 35 21 0 32
-6 36 -20z m10 -100 c9 -28 -11 -50 -46 -50 -26 0 -29 3 -29 35 0 33 2 35 34
35 26 0 36 -5 41 -20z"/>
<path d="M698 430 c-22 -17 -27 -17 -32 -5 -6 17 -42 20 -51 5 -3 -5 -1 -10 4
-10 7 0 11 -29 11 -75 0 -73 1 -75 25 -75 24 0 25 3 25 60 0 55 2 60 24 66 27
6 42 32 28 46 -5 5 -20 0 -34 -12z"/>
<path d="M800 441 c-13 -4 -33 -22 -44 -40 -16 -28 -17 -38 -7 -72 30 -100
161 -74 161 31 0 63 -48 99 -110 81z m49 -30 c7 -5 14 -27 15 -50 2 -74 -57
-95 -70 -24 -11 59 17 98 55 74z"/>
<path d="M432 358 c3 -78 4 -83 26 -86 13 -2 34 3 47 12 21 14 24 14 29 0 8
-20 53 -14 46 6 -2 8 -4 45 -4 83 1 64 0 67 -23 67 -21 0 -23 -4 -23 -53 0
-55 -12 -77 -42 -77 -15 0 -18 9 -18 65 0 59 -2 65 -20 65 -20 0 -21 -5 -18
-82z"/>
<path d="M1150 367 c0 -76 9 -97 43 -97 13 0 17 5 13 16 -3 9 -6 47 -6 85 0
67 -1 69 -25 69 -24 0 -25 -2 -25 -73z"/>
<path d="M1261 414 c-48 -62 -8 -148 66 -142 45 4 58 28 15 28 -36 0 -55 21
-55 61 0 33 16 49 51 49 13 0 22 6 22 15 0 11 -11 15 -39 15 -31 0 -44 -6 -60
-26z"/>
</g>
</svg>
