<svg width="120" viewBox="0 0 888 173" fill="none" xmlns="http://www.w3.org/2000/svg">
<path fill-rule="evenodd" clip-rule="evenodd" d="M747.17 0H887.17V140C887.17 62.6801 824.49 0 747.17 0ZM29.64 151.5H71.89L79.95 171H102.05L61.36 80H40.56L0 171H21.58L29.64 151.5ZM50.83 100.67L65.26 135.51H36.4L50.83 100.67ZM190.952 124.07H171.712V150.72C166.858 153.32 161.398 154.62 155.332 154.62C149.612 154.62 144.498 153.407 139.992 150.98C135.572 148.467 132.105 145 129.592 140.58C127.078 136.16 125.822 131.133 125.822 125.5C125.822 119.78 127.078 114.71 129.592 110.29C132.105 105.87 135.615 102.447 140.122 100.02C144.628 97.5933 149.785 96.38 155.592 96.38C164.778 96.38 172.622 99.8033 179.122 106.65L192.642 94.17C188.222 89.0567 182.762 85.1567 176.262 82.47C169.762 79.7833 162.525 78.44 154.552 78.44C145.018 78.44 136.438 80.4767 128.812 84.55C121.185 88.5367 115.205 94.1267 110.872 101.32C106.625 108.427 104.502 116.487 104.502 125.5C104.502 134.513 106.625 142.617 110.872 149.81C115.205 156.917 121.142 162.507 128.682 166.58C136.222 170.567 144.715 172.56 154.162 172.56C160.748 172.56 167.292 171.563 173.792 169.57C180.292 167.577 186.012 164.717 190.952 160.99V124.07ZM280.975 171V154.1H231.445V133.04H273.695V116.66H231.445V96.9H279.285V80H210.515V171H280.975ZM244.965 62.71L256.275 72.59H271.095L253.935 53.87H235.995L218.835 72.59H233.655L244.965 62.71ZM363.901 171H381.191V80H360.391V135.25L315.151 80H297.731V171H318.531V115.75L363.901 171ZM421.052 166.58C428.592 170.567 436.998 172.56 446.272 172.56C454.158 172.56 461.308 171.173 467.722 168.4C474.135 165.627 479.508 161.597 483.842 156.31L470.322 143.83C464.168 151.023 456.542 154.62 447.442 154.62C441.808 154.62 436.782 153.407 432.362 150.98C427.942 148.467 424.475 145 421.962 140.58C419.535 136.16 418.322 131.133 418.322 125.5C418.322 119.867 419.535 114.84 421.962 110.42C424.475 106 427.942 102.577 432.362 100.15C436.782 97.6367 441.808 96.38 447.442 96.38C456.542 96.38 464.168 99.9333 470.322 107.04L483.842 94.56C479.508 89.36 474.135 85.3733 467.722 82.6C461.395 79.8267 454.288 78.44 446.402 78.44C437.042 78.44 428.592 80.4767 421.052 84.55C413.598 88.5367 407.705 94.1267 403.372 101.32C399.125 108.427 397.002 116.487 397.002 125.5C397.002 134.513 399.125 142.617 403.372 149.81C407.705 156.917 413.598 162.507 421.052 166.58ZM519.124 80H498.064V171H519.124V80ZM558.4 151.5H600.65L608.71 171H630.81L590.12 80H569.32L528.76 171H550.34L558.4 151.5ZM579.59 100.67L594.02 135.51H565.16L579.59 100.67ZM686.037 169.7C692.797 171.607 699.774 172.56 706.967 172.56C715.287 172.56 722.351 171.303 728.157 168.79C733.964 166.277 738.297 162.897 741.157 158.65C744.104 154.317 745.577 149.55 745.577 144.35C745.577 138.283 743.974 133.473 740.767 129.92C737.647 126.367 733.877 123.767 729.457 122.12C725.037 120.473 719.361 118.827 712.427 117.18C705.754 115.707 700.771 114.233 697.477 112.76C694.271 111.2 692.667 108.86 692.667 105.74C692.667 102.62 694.054 100.107 696.827 98.2C699.687 96.2933 704.064 95.34 709.957 95.34C718.364 95.34 726.771 97.7233 735.177 102.49L741.677 86.5C737.517 83.9 732.664 81.9067 727.117 80.52C721.571 79.1333 715.894 78.44 710.087 78.44C701.767 78.44 694.704 79.6967 688.897 82.21C683.177 84.7233 678.887 88.1467 676.027 92.48C673.167 96.7267 671.737 101.493 671.737 106.78C671.737 112.847 673.297 117.7 676.417 121.34C679.624 124.98 683.437 127.623 687.857 129.27C692.277 130.917 697.954 132.563 704.887 134.21C709.394 135.25 712.947 136.203 715.547 137.07C718.234 137.937 720.401 139.107 722.047 140.58C723.781 141.967 724.647 143.743 724.647 145.91C724.647 148.857 723.217 151.24 720.357 153.06C717.497 154.793 713.077 155.66 707.097 155.66C701.724 155.66 696.351 154.793 690.977 153.06C685.604 151.327 680.967 149.03 677.067 146.17L669.917 162.03C673.991 165.15 679.364 167.707 686.037 169.7ZM814.58 126.02C810.333 121.34 804.223 118.35 796.25 117.05L816.79 93.65V80H753.09V96.9H791.83L773.11 118.09V132H782.73C794.083 132 799.76 135.727 799.76 143.18C799.76 146.907 798.243 149.81 795.21 151.89C792.177 153.883 788.017 154.88 782.73 154.88C777.963 154.88 773.283 154.187 768.69 152.8C764.183 151.327 760.197 149.29 756.73 146.69L748.54 162.81C752.873 165.93 758.117 168.357 764.27 170.09C770.51 171.737 776.837 172.56 783.25 172.56C791.483 172.56 798.417 171.217 804.05 168.53C809.77 165.843 814.017 162.29 816.79 157.87C819.563 153.363 820.95 148.467 820.95 143.18C820.95 136.333 818.827 130.613 814.58 126.02Z" fill="white"/>
</svg>
